<svg width="19" height="21" viewBox="0 0 19 21" fill="none" xmlns="http://www.w3.org/2000/svg">
<path d="M16.443 9.71387C18.6035 8.22503 18.0963 4.51466 15.5084 3.80076C15.3252 3.7491 14.5973 3.77728 14.508 3.69274C14.3624 3.55184 14.2732 2.88022 14.1605 2.67356C13.8364 2.07708 13.3198 1.59802 12.7139 1.30683C11.4458 0.696262 9.91467 0.959276 8.97064 2.01603C8.05948 0.785499 6.47201 0.409765 5.10058 1.072C4.49001 1.36319 3.96398 1.83755 3.62582 2.41994C3.45205 2.72053 3.32524 3.0446 3.25479 3.38746C3.17494 3.79607 3.27827 4.1718 3.24539 4.57102C3.22191 4.84812 3.28766 4.79176 2.98708 4.90448C2.818 4.97023 2.65361 5.05008 2.49393 5.14401C2.14637 5.35536 1.84578 5.63247 1.60156 5.95654C1.13659 6.5765 0.897057 7.36084 0.92054 8.13579C0.929934 8.48804 1.00038 8.84029 1.1225 9.17376C1.19295 9.36632 1.28688 9.55419 1.39021 9.73266C1.43717 9.80781 1.5452 9.92053 1.56868 9.99568C1.63913 10.2117 1.63913 10.0379 1.5358 10.2446C1.33854 10.6297 0.9769 10.9068 0.803123 11.3295C0.62465 11.7569 0.54011 12.2172 0.544806 12.6822C0.549503 13.119 0.63874 13.5511 0.80782 13.9503C0.887664 14.1428 1.01917 14.3072 1.10371 14.4951C1.17416 14.6501 1.23052 14.636 1.19295 14.7675C1.17416 14.8286 0.911147 15.0211 0.873574 15.0634C0.300579 15.6974 -0.00470432 16.5334 -7.64548e-06 17.3741C0.0140824 19.1918 1.50762 20.7135 3.34872 20.6195C4.17533 20.5773 4.97377 20.2109 5.54207 19.6051C5.62661 19.5158 5.85674 19.079 5.95537 19.0462C6.03522 19.0227 6.44383 19.234 6.52837 19.2575C6.96046 19.3702 7.41604 19.3843 7.85753 19.3045C8.67944 19.1589 9.43091 18.6892 9.91937 18.0129C10.0556 17.8297 10.1307 17.5996 10.2622 17.4211C10.2951 17.3788 10.3186 17.2004 10.3609 17.1769C10.3796 17.1675 10.6661 17.2614 10.7272 17.2708C11.2063 17.3648 11.7088 17.3413 12.1832 17.2098C12.681 17.0689 13.146 16.8059 13.5264 16.4536C13.6297 16.355 13.9444 15.8477 14.0571 15.8055C14.1839 15.7632 14.6113 15.9511 14.7616 15.9698C15.7573 16.0779 16.7671 15.6833 17.4528 14.9601C18.9323 13.382 18.4203 10.6391 16.443 9.71387C16.5699 9.62464 16.6967 9.5401 16.8235 9.45086C16.6967 9.5401 16.5699 9.62464 16.443 9.71387ZM13.8035 6.35106C13.9209 6.21485 14.0383 6.05517 14.1182 5.89548C14.1464 5.84851 14.1699 5.80155 14.1933 5.74988C14.3061 5.51975 14.4 5.28491 14.4564 5.03599C14.5362 4.69313 14.4657 4.64616 14.8039 4.61329C15.128 4.58511 15.5178 4.74479 15.7855 4.90448C16.3256 5.22855 16.6779 5.79215 16.8188 6.39802C16.955 6.9898 16.8939 7.63794 16.6121 8.17806C16.4618 8.46926 16.2458 8.72288 15.9828 8.91544C15.8935 8.98119 15.1092 9.35693 15.1092 9.27239C15.1092 9.2583 15.1092 9.23951 15.1092 9.22542C15.1139 9.1174 15.1092 8.99998 15.0998 8.89196C15.0998 8.87317 15.0951 8.85908 15.0951 8.84029C15.0951 8.84029 15.0951 8.8356 15.0951 8.8309C14.9965 7.87278 14.508 6.9945 13.7143 6.44029C13.7472 6.41681 13.7753 6.38393 13.8035 6.35106C13.8176 6.33697 13.7753 6.38393 13.8035 6.35106C13.9209 6.21485 13.7753 6.38393 13.8035 6.35106ZM13.7378 7.74597C13.7472 7.75536 13.7519 7.76475 13.7565 7.77415C13.874 7.93853 13.9632 8.11701 14.0383 8.30018C14.0477 8.32366 14.0524 8.34245 14.0618 8.36593C14.0665 8.37532 14.0665 8.38472 14.0712 8.39411C14.0759 8.4082 14.0806 8.42229 14.0853 8.43638C14.137 8.58667 14.1605 8.74636 14.1839 8.90135C14.1839 8.92483 14.1886 8.94362 14.1886 8.9671C14.1886 8.9765 14.1886 8.99059 14.1933 8.99998C14.1933 9.02346 14.198 9.04225 14.198 9.06573C14.198 9.07043 14.198 9.07513 14.198 9.07982C14.2074 9.28178 14.2027 9.52131 14.137 9.71387C14.1323 9.73266 14.1323 9.75145 14.1276 9.76554C13.7941 10.5734 13.2775 11.292 12.371 11.4845C11.8074 11.6066 11.1264 11.5033 10.6567 11.1511C10.6192 11.1276 10.5816 11.0994 10.5487 11.0759C9.5859 10.3432 9.40743 9.02346 9.98042 7.9902C10.5722 6.91935 11.6524 6.60468 12.7702 6.98041C12.7937 6.9898 12.8172 7.00389 12.8407 7.01329C12.8642 7.02268 12.8877 7.03677 12.9111 7.04616C12.9158 7.04616 12.9205 7.05086 12.9252 7.05086C12.991 7.08374 13.0567 7.12131 13.1178 7.16358C13.1742 7.20115 13.2305 7.23873 13.2869 7.281C13.3385 7.31857 13.3855 7.36084 13.4325 7.40781C13.4419 7.4172 13.4513 7.4219 13.456 7.43129C13.5217 7.48295 13.7143 7.71779 13.7378 7.74597C13.7425 7.75536 13.7096 7.7084 13.7378 7.74597ZM8.81565 8.25321C8.78747 8.35654 8.76398 8.46456 8.7452 8.56789C8.07827 8.58667 7.49119 8.29078 7.03091 7.82581C6.74441 7.51113 6.54715 7.12601 6.45792 6.708C6.02113 5.56202 7.08257 4.1718 8.14872 3.90409C8.02661 5.07356 8.56672 6.27121 9.52954 6.95223C9.19608 7.32796 8.95185 7.77884 8.81565 8.25791C8.83443 8.19215 8.85322 8.1264 8.87201 8.05595C8.85322 8.1264 8.83443 8.18746 8.81565 8.25321C8.78747 8.35654 8.95185 7.76945 8.81565 8.25321ZM9.49667 11.3436C8.96594 11.7194 8.48688 12.3017 8.30371 12.9358C8.22856 12.917 8.15342 12.8982 8.07827 12.87C7.86692 12.7996 7.63678 12.7855 7.41604 12.7808C7.3268 12.7808 7.23757 12.7808 7.14833 12.7855C7.07788 12.7996 7.01213 12.8043 6.94168 12.8043C6.88531 12.809 6.82895 12.8137 6.77729 12.8278C6.77259 12.8278 6.7679 12.8278 6.7679 12.8278C6.74441 12.8372 6.72093 12.8419 6.69745 12.8419C5.93189 12.4239 5.42465 11.5597 5.46692 10.6814V10.6767C5.46692 10.6532 5.46692 10.6297 5.47162 10.6062C5.47162 10.6015 5.47162 10.6015 5.47162 10.5968C5.47162 10.5781 5.47631 10.5593 5.47631 10.5452V10.5405C5.48101 10.4747 5.48571 10.3855 5.50449 10.3197C5.51858 10.2305 5.54207 10.1413 5.56555 10.0567C5.56555 10.052 5.56555 10.052 5.57025 10.0473C5.57025 10.0426 5.57494 10.0379 5.57494 10.0332C5.62191 9.87356 5.69236 9.73266 5.76281 9.58237C5.80038 9.51661 5.83796 9.45086 5.88492 9.38511C6.00704 9.19724 6.16203 9.02816 6.3405 8.88726C6.39216 8.8356 6.44383 8.79333 6.50958 8.76045C6.52837 8.74636 6.54715 8.73227 6.56594 8.72288C6.58003 8.71348 6.59412 8.70409 6.60821 8.69939C7.1859 9.21133 7.92328 9.49313 8.69353 9.49313H8.70762C8.72171 9.6716 8.7405 9.92992 8.82504 10.0943C8.83443 10.1272 8.84383 10.1601 8.85792 10.1976C8.85792 10.2023 8.86261 10.2023 8.86261 10.207C8.87201 10.2399 8.8861 10.2728 8.89549 10.3104C9.027 10.6861 9.23365 11.0383 9.49667 11.3436ZM9.33698 3.09626C9.33698 3.09157 9.34167 3.08687 9.34167 3.08217V3.07748C10.4595 1.02973 13.6016 1.94558 13.6297 4.21407C13.6297 4.21877 13.6297 4.22346 13.6297 4.22816V4.23286C13.6297 4.77767 13.4419 5.3037 13.1131 5.7311C13.1084 5.73579 13.1084 5.73579 13.1037 5.74049C13.0286 5.83912 12.9393 5.92836 12.8501 6.0129C12.2301 5.81094 11.3753 5.77337 10.7742 6.07395C10.6849 6.10683 10.3421 6.32757 10.2669 6.32288C10.1448 6.31818 9.95694 6.11622 9.8724 6.04577C9.59999 5.81564 9.38395 5.51975 9.24304 5.19098C9.24304 5.18628 9.23835 5.18158 9.23835 5.18158C8.95655 4.51466 9.0223 3.65986 9.31819 3.11505C9.29471 3.17141 9.29941 3.16202 9.33698 3.09626C9.33698 3.09157 9.26653 3.22777 9.33698 3.09626ZM6.41095 1.64029C7.25166 1.64029 8.02191 2.11935 8.42113 2.87082C8.41643 2.88022 8.41643 2.88491 8.41173 2.89431C8.40704 2.9037 8.40234 2.91779 8.39764 2.92718C6.7585 3.08217 5.50449 4.54753 5.48101 6.17258C5.29314 6.09274 5.10997 5.97532 4.95498 5.83912C4.9362 5.82503 4.92211 5.81094 4.90332 5.79685C3.21252 4.52405 4.40547 1.64029 6.41095 1.64029ZM3.63991 5.67943C3.64461 5.68413 3.64461 5.68883 3.64931 5.69352C3.70567 5.79215 3.79021 5.94714 3.87475 6.03168C3.88884 6.05047 3.89823 6.06456 3.91232 6.08335C3.92171 6.09274 3.93111 6.10683 3.9405 6.11622C3.95459 6.13031 3.96398 6.1491 3.97807 6.16319C4.227 6.46378 4.55577 6.75027 4.91271 6.92405C5.10058 7.02268 5.48101 7.06965 5.62661 7.20115C5.7769 7.33266 5.87553 7.80702 5.99295 7.99489C5.83326 8.09352 5.67827 8.22033 5.54676 8.35654C5.53737 8.36123 5.53267 8.37063 5.52328 8.37532C5.50919 8.38941 5.4998 8.39881 5.48571 8.4129C5.26966 8.62894 5.09119 8.87787 4.94089 9.15027C4.94089 9.15497 4.9362 9.15967 4.9362 9.15967C4.88923 9.19724 4.86575 9.24421 4.86575 9.29587C4.85635 9.31935 4.84226 9.34284 4.83287 9.36632C4.83287 9.36632 4.83287 9.36632 4.83287 9.37102C4.79999 9.44147 4.77181 9.51661 4.74363 9.59176C4.72015 9.65282 4.69197 9.71857 4.68258 9.78432C4.67788 9.80311 4.67318 9.8219 4.66849 9.84068C4.66379 9.85947 4.65909 9.87826 4.6544 9.89705C4.6544 9.90174 4.6497 9.91113 4.6497 9.91583C4.645 9.92992 4.64031 9.94401 4.64031 9.9581C4.64031 9.9628 4.64031 9.9628 4.64031 9.96749C4.61682 10.0708 4.60743 10.1788 4.57925 10.2822C4.57925 10.2869 4.57925 10.2869 4.57925 10.2869V10.2916C4.57925 10.2963 4.57925 10.301 4.57925 10.301V10.3104C4.55577 10.315 4.52759 10.3197 4.5041 10.3244C4.32563 10.3526 4.13306 10.3667 3.94989 10.3479H3.9452C3.92171 10.3479 3.90293 10.3432 3.87944 10.3432C3.87475 10.3432 3.87005 10.3432 3.86535 10.3432C3.67749 10.3197 3.48962 10.2728 3.31115 10.2023C3.22661 10.1695 3.14676 10.1319 3.06692 10.0896C3.02465 10.0614 2.98238 10.0379 2.94011 10.0192C2.91663 10.0051 2.89314 9.99098 2.86966 9.97219C2.85087 9.9581 2.83209 9.94871 2.818 9.93462C2.818 9.93462 2.818 9.93462 2.8133 9.93462C2.76633 9.89704 2.72406 9.86417 2.6771 9.82659C1.23991 8.62894 1.78473 6.08335 3.63991 5.67943C3.63052 5.66534 3.236 5.76867 3.17964 5.78276C3.33463 5.74049 3.48962 5.71231 3.63991 5.67943C3.64461 5.68413 2.60195 5.90487 3.63991 5.67943ZM2.36242 10.7518C2.52211 10.8599 2.83678 11.09 3.03404 11.09C3.31584 11.1933 3.63052 11.2638 3.93111 11.2779C4.0814 11.2873 4.25987 11.3013 4.41017 11.2685C4.52289 11.198 4.57925 11.1933 4.57925 11.2497C4.6544 11.7334 4.83757 12.3205 5.16633 12.6963C5.31193 12.8982 5.47631 13.0814 5.66418 13.2458L5.66888 13.2505C5.19921 13.5417 4.30684 14.3119 4.30684 14.9319C4.19882 14.9601 4.0814 14.9835 3.96868 14.9929C3.95929 14.9929 3.94989 14.9929 3.9405 14.9976C1.6861 15.2043 0.629346 12.1139 2.36242 10.7518C2.36712 10.7565 2.15107 10.9773 2.11819 10.9538C2.11819 10.9538 2.43287 10.7002 2.36242 10.7518C2.44226 10.8035 1.79882 11.198 2.36242 10.7518ZM3.19843 19.7178C2.01017 19.7178 1.09901 18.7738 0.958114 17.6231C0.89236 17.083 0.995687 16.5241 1.28218 16.0591C1.3996 15.8665 1.61565 15.5237 1.83639 15.4485C2.09471 15.3593 2.57377 15.6974 2.87905 15.8008C3.21721 15.8994 3.58825 15.9511 3.9405 15.9182C4.00156 15.9135 4.05792 15.9088 4.11897 15.9041C4.09549 16.3033 4.14715 16.7354 4.28336 17.1111C4.33502 17.2755 4.39608 17.454 4.48532 17.5996C4.60743 17.8391 4.76242 18.0927 4.95498 18.2853C5.18982 18.5577 5.218 18.5436 4.98316 18.8442C4.84696 19.018 4.69197 19.1683 4.51349 19.2951C4.12837 19.5722 3.66809 19.7178 3.19843 19.7178ZM9.5859 16.4677C9.5859 16.4724 9.5859 16.4724 9.5859 16.4677C9.29471 18.2477 7.10606 19.0556 5.78629 17.7968C5.19451 17.2286 4.84696 16.3925 5.06301 15.58C5.26966 14.8145 5.89901 13.9033 6.7585 13.7765C7.1859 13.6638 8.05009 13.6262 8.39764 13.9738C8.39764 13.9738 8.39764 13.9738 8.40234 13.9738C9.28531 14.4575 9.74089 15.5565 9.5906 16.4348C9.59529 16.3925 9.5953 16.4019 9.5859 16.4677C9.5859 16.4724 9.60469 16.3409 9.5859 16.4677ZM11.3331 16.416C11.0607 16.416 10.7882 16.3644 10.5346 16.2657C10.544 16.1389 10.5487 15.9933 10.5346 15.8665C10.5252 15.7303 10.5064 15.5941 10.483 15.4579C10.4783 15.4297 10.4736 15.4015 10.4642 15.3734C10.4642 15.3734 10.4642 15.3734 10.4642 15.3687C10.4595 15.3452 10.4548 15.317 10.4454 15.2935C10.4454 15.2888 10.4454 15.2888 10.4454 15.2888C10.328 14.8567 10.0931 14.1194 9.69392 13.8516C9.67514 13.8282 9.65635 13.8094 9.63757 13.7906C9.62817 13.7812 9.61878 13.7671 9.60939 13.7577C9.46849 13.6074 9.3088 13.4759 9.14441 13.3585C9.14441 13.3538 9.14911 13.3491 9.14911 13.3444C9.15381 13.3303 9.1585 13.3162 9.1632 13.3021C9.20547 13.1612 9.27122 13.0109 9.34637 12.8794C9.4497 12.6822 9.5859 12.499 9.74559 12.344C9.75968 12.3299 9.76907 12.3205 9.78316 12.3064C9.79725 12.2923 9.80665 12.283 9.82074 12.2736C9.83013 12.2642 9.83952 12.2548 9.85361 12.2454C9.85831 12.2407 9.86301 12.236 9.8724 12.2313C9.88179 12.2219 9.89588 12.2125 9.90528 12.2031C10.0039 12.1139 10.1213 12.0387 10.2387 11.973C10.746 12.2923 11.319 12.452 11.9201 12.452C11.9201 12.4567 11.9201 12.4661 11.9201 12.4708C11.892 12.9405 11.9577 13.4102 12.1174 13.8516C12.2066 14.0959 12.4509 14.744 12.7092 14.8755C12.7139 14.8849 12.7233 14.8943 12.7327 14.899C12.7468 14.9178 12.7609 14.9319 12.7749 14.946C12.8689 15.0493 12.9675 15.1479 13.0755 15.2372C13.2775 15.3076 13.2916 15.4015 13.1272 15.5237C13.0567 15.6974 12.7984 15.8712 12.6528 15.9792C12.263 16.261 11.8074 16.416 11.3331 16.416ZM15.1139 15.0775C13.6861 15.0775 12.6387 13.6826 12.8548 12.3111C13.2728 12.1796 13.8035 11.9354 14.0806 11.5831C14.1135 11.5503 14.1464 11.5221 14.1746 11.4892C14.1792 11.4845 14.1839 11.4798 14.1886 11.4751C14.2309 11.4329 14.2732 11.3859 14.3108 11.3389C14.3248 11.3248 14.3342 11.3107 14.3483 11.2967C14.353 11.292 14.3577 11.2873 14.3624 11.2779C14.4329 11.1933 14.5268 11.0806 14.5785 10.982C14.6959 10.7988 14.8039 10.6015 14.8791 10.3996C14.8837 10.3855 14.8884 10.3761 14.8931 10.362C16.2035 10.2352 17.3495 11.3436 17.3965 12.6305C17.4434 13.8939 16.4149 15.0775 15.1139 15.0775Z" fill="black"/>
</svg>
